<?xml version="1.0" encoding="UTF-8"?>
<svg id="b" data-name="圖層 2" xmlns="http://www.w3.org/2000/svg" viewBox="0 0 1024 1024">
<path d="M780.79,757.29c-105.56,115.66-272.75,150.7-416.01,87.22-107.91-47.82-181.08-142.06-206.47-248.9l99.19.16h.05c10.69,0,20.61-5.53,26.24-14.61,5.64-9.1,6.16-20.47,1.38-30.05l-106.16-212.75c-5.34-10.7-16.37-17.37-28.33-17.08-11.95.27-22.67,7.43-27.52,18.36-46.04,103.9-48.86,219.5-7.95,325.52,40.91,106.02,120.66,189.76,224.55,235.8,55.67,24.67,114.4,36.61,172.59,36.61,116.95,0,231.58-48.31,314.04-138.66,11.49-12.6,10.6-32.12-1.99-43.61-12.6-11.49-32.12-10.61-43.61,1.99M684.48,123.04c-167.59-74.26-363.15-33.25-486.63,102.05-11.49,12.6-10.6,32.12,1.99,43.61,12.6,11.49,32.12,10.61,43.61-1.99,105.56-115.65,272.74-150.71,416.01-87.22,107.73,47.74,180.84,141.75,206.34,248.37l-99.22.37c-10.68.04-20.57,5.59-26.17,14.68-5.6,9.09-6.1,20.43-1.34,29.98l106.16,212.75c5.23,10.49,15.94,17.09,27.62,17.09.23,0,.47,0,.71,0,11.95-.27,22.67-7.43,27.52-18.36,95.03-214.47-2.13-466.28-216.6-561.32M359.15,704.17c-17.05,0-30.87-13.82-30.87-30.87v-306.28c0-17.05,13.82-30.87,30.87-30.87s30.87,13.82,30.87,30.87v306.28c0,17.05-13.82,30.87-30.87,30.87M459.7,704.17c-17.05,0-30.87-13.82-30.87-30.87v-356.58c0-17.05,13.82-30.87,30.87-30.87s30.87,13.82,30.87,30.87v356.58c0,17.05-13.82,30.87-30.87,30.87M560.25,704.17c-17.05,0-30.87-13.82-30.87-30.87v-275.74c0-17.05,13.82-30.87,30.87-30.87s30.87,13.82,30.87,30.87v275.74c0,17.05-13.82,30.87-30.87,30.87M660.8,704.17c-17.05,0-30.87-13.82-30.87-30.87v-306.28c0-17.05,13.82-30.87,30.87-30.87s30.87,13.82,30.87,30.87v306.28c0,17.05-13.82,30.87-30.87,30.87Z" fill="#fff" stroke-width="0"/>
</svg>
