<?xml version="1.0" encoding="UTF-8"?>
<svg id="b" data-name="圖層 2" xmlns="http://www.w3.org/2000/svg" viewBox="0 0 1024 1024">
<path d="M338.03,402.94c37.1-57.5,100.88-92.56,170.28-92.56.7,0,1.39.05,2.09.05v-149.73c0-26.53-31.72-40.19-51-21.97l-207.76,196.37h-55.98v67.84h142.36M378.69,579.98c25.5,47.95,75.16,77.73,129.62,77.73,80.8,0,146.54-65.37,146.54-145.71s-65.74-145.71-146.54-145.71c-54.46,0-104.12,29.78-129.62,77.73l-7.89,14.83h-175.24v106.3h175.24l7.89,14.83M508.3,713.62c-69.39,0-133.17-35.07-170.28-92.56h-142.36v67.84h55.98l207.76,196.37c19.28,18.22,51,4.55,51-21.97v-149.72c-.7,0-1.39.05-2.09.05M712.22,337.06c-7.18,0-14.37-2.75-19.83-8.25-10.88-10.95-10.83-28.65.12-39.53l117.68-116.94c10.95-10.88,28.65-10.83,39.53.12,10.88,10.95,10.83,28.65-.12,39.53l-117.68,116.94c-5.45,5.42-12.58,8.13-19.7,8.13M786.33,466.21c-12.38,0-23.69-8.28-27.01-20.81-3.95-14.92,4.95-30.23,19.87-34.17l160.38-42.43c14.92-3.94,30.23,4.95,34.17,19.87,3.95,14.92-4.95,30.23-19.87,34.17l-160.38,42.43c-2.39.63-4.8.94-7.17.94M946.1,658.55c-2.42,0-4.89-.32-7.34-.98l-160.11-43.44c-14.9-4.04-23.7-19.4-19.66-34.3,4.04-14.9,19.4-23.71,34.3-19.66l160.11,43.44c14.9,4.04,23.7,19.4,19.66,34.3-3.38,12.45-14.65,20.64-26.96,20.64M828.14,861.55c-7.18,0-14.37-2.75-19.83-8.25l-116.94-117.68c-10.88-10.95-10.83-28.65.12-39.53,10.95-10.88,28.65-10.83,39.53.12l116.94,117.68c10.88,10.95,10.83,28.65-.12,39.53-5.45,5.42-12.58,8.13-19.7,8.13M84.44,335.1h54.58v353.79h-54.58c-19.39,0-35.13-15.74-35.13-35.13v-283.54c0-19.39,15.74-35.13,35.13-35.13Z" fill="#fff" stroke-width="0"/>
</svg>
