<?xml version="1.0" encoding="UTF-8"?>
<svg id="b" data-name="圖層 2" xmlns="http://www.w3.org/2000/svg" viewBox="0 0 1024 1024">
<path d="M512,500.27c17.32,0,31.37-14.04,31.37-31.37V199.45c0-17.32-14.04-31.37-31.37-31.37s-31.37,14.04-31.37,31.37v269.45c0,17.32,14.04,31.37,31.37,31.37M652.7,283.29c-15.32-8.04-34.3-2.12-42.34,13.23-8.04,15.35-2.12,34.31,13.23,42.34,79.72,41.76,129.24,123.56,129.24,213.48,0,132.8-108.04,240.84-240.84,240.84s-240.84-108.04-240.84-240.84c0-89.92,49.52-171.72,129.24-213.48,15.35-8.04,21.27-27,13.23-42.34-8.05-15.35-27.02-21.27-42.34-13.23-100.46,52.63-162.87,155.73-162.87,269.06,0,167.39,136.18,303.57,303.57,303.57s303.57-136.18,303.57-303.57c0-113.33-62.41-216.42-162.87-269.06Z" fill="#fff" stroke-width="0"/>
</svg>
