<?xml version="1.0" encoding="UTF-8"?>
<svg id="b" data-name="圖層 2" xmlns="http://www.w3.org/2000/svg" viewBox="0 0 1024 1024">
<path d="M927.56,589.72v-155.42h-53.11c-9.54-44.72-27.18-86.42-51.26-123.58l37.6-37.6-109.91-109.91-37.6,37.6c-37.15-24.08-78.85-41.71-123.57-51.26v-53.11h-155.42v53.11c-44.72,9.54-86.42,27.18-123.58,51.26l-37.61-37.61-109.9,109.91,37.6,37.6c-24.08,37.15-41.71,78.85-51.26,123.57h-53.11v155.42h53.11c9.54,44.72,27.18,86.42,51.26,123.57l-37.6,37.61,109.9,109.9,37.61-37.6c37.15,24.08,78.85,41.71,123.57,51.26v53.11h155.42v-53.11c44.72-9.54,86.42-27.18,123.57-51.25l37.6,37.6,109.91-109.9-37.6-37.6c24.08-37.15,41.71-78.85,51.26-123.57h53.11ZM512,826.19c-173.53,0-314.2-140.67-314.2-314.19s140.67-314.19,314.2-314.19,314.19,140.67,314.19,314.19-140.67,314.19-314.19,314.19M512,263.51c-115.88,0-217.97,82.05-242.73,195.08-3.82,17.42-5.76,35.39-5.76,53.4,0,52.37,16.1,102.46,46.57,144.87.24.34.56.59.81.92.68.87,1.42,1.69,2.19,2.49.7.72,1.41,1.43,2.16,2.07.72.62,1.5,1.17,2.28,1.73.95.67,1.91,1.29,2.91,1.84.35.19.63.45.99.63.87.44,1.76.79,2.65,1.14.19.08.38.17.57.25,1.69.62,3.4,1.04,5.12,1.35.31.06.62.11.93.16,1.52.23,3.05.38,4.57.38.19,0,.38-.04.57-.04.42,0,.84-.06,1.26-.09,1.39-.08,2.76-.25,4.12-.52.53-.1,1.05-.2,1.57-.33,1.71-.43,3.39-.96,5-1.67.24-.1.46-.25.7-.36,1.5-.7,2.93-1.54,4.3-2.48.2-.14.43-.22.63-.36.17-.12.29-.27.45-.4,1.51-1.12,2.95-2.34,4.24-3.75.05-.05.09-.12.14-.17,1.15-1.26,2.17-2.66,3.12-4.13.32-.49.6-1,.89-1.51.27-.48.59-.92.84-1.41l86.38-173.1c4.8-9.62,4.29-21.02-1.35-30.17-5.64-9.15-15.61-14.73-26.35-14.77l-79.01-.25c29.93-64.7,95.8-108.66,169.21-108.66,102.75,0,186.34,83.59,186.34,186.34s-83.59,186.35-186.34,186.35c-14.11,0-28.17-1.58-41.78-4.7-16.78-3.84-33.4,6.62-37.23,23.35s6.63,33.4,23.35,37.23c18.16,4.15,36.88,6.26,55.66,6.26,137.02,0,248.48-111.47,248.48-248.49s-111.47-248.48-248.48-248.48Z" fill="#fff" stroke-width="0"/>
</svg>
